# xmcd CD database file
# Copyright (C) 1993-1998 Ti Kan
#
# Track frame offsets:
#  182
#  11305
#  26562
#  40012
#  52050
#  65815
#  79212
#  91030
#  104970
#  116902
#  131485
#  145950
#
# Disc length: 2118 seconds
#
# Revision: 1
# Processed by: cddbd v1.4b41PL1 Copyright (c) Steve Scherf et al.
# Submitted via: CDWizzard Release:4.31
#
DISCID=a808440c
DTITLE=Nat King Cole - For all we know
DYEAR=1900
DGENRE=
TTITLE0=You're the cream in my coffee
TTITLE1=Embraceable you
TTITLE2=Prelude in 'C' sharp minor op 3 no 2
TTITLE3=Nature boy
TTITLE4=For all we know
TTITLE5=Gee baby, ain't I good to you
TTITLE6=Love is a many spendoured thing
TTITLE7=Get your kicks on route 66
TTITLE8=You stepped out of a dream
TTITLE9=Star dust
TTITLE10=Don't get around much anymore
TTITLE11=Coquette
EXTD=
EXTT0=
EXTT1=
EXTT2=
EXTT3=
EXTT4=
EXTT5=
EXTT6=
EXTT7=
EXTT8=
EXTT9=
EXTT10=
EXTT11=
PLAYORDER=
